<svg 
 xmlns="http://www.w3.org/2000/svg"
 xmlns:xlink="http://www.w3.org/1999/xlink"
 width="157px" height="40px">
<path fill-rule="evenodd"  fill="rgb(153, 153, 153)"
 d="M152.696,34.963 C152.769,35.273 152.883,35.545 153.039,35.780 C153.191,36.007 153.391,36.186 153.637,36.317 C153.883,36.448 154.176,36.514 154.516,36.514 C154.863,36.514 155.163,36.432 155.415,36.269 C155.667,36.106 155.910,35.813 156.145,35.389 L156.555,35.641 C156.312,36.102 155.988,36.469 155.582,36.742 C155.176,37.016 154.709,37.152 154.182,37.152 C153.717,37.152 153.310,37.070 152.960,36.906 C152.610,36.742 152.322,36.520 152.096,36.238 C151.869,35.957 151.700,35.629 151.589,35.254 C151.478,34.879 151.422,34.482 151.422,34.064 C151.422,33.689 151.481,33.321 151.601,32.960 C151.720,32.599 151.894,32.273 152.125,31.984 C152.348,31.707 152.624,31.483 152.954,31.313 C153.284,31.144 153.654,31.059 154.064,31.059 C154.486,31.059 154.848,31.125 155.148,31.258 C155.449,31.391 155.693,31.572 155.881,31.803 C156.060,32.022 156.194,32.279 156.282,32.576 C156.370,32.873 156.414,33.195 156.414,33.543 L156.414,33.930 L152.588,33.930 C152.588,34.309 152.624,34.654 152.696,34.963 ZM155.260,33.438 C155.260,33.219 155.241,32.986 155.204,32.737 C155.167,32.487 155.107,32.279 155.025,32.111 C154.935,31.932 154.812,31.786 154.656,31.673 C154.500,31.560 154.299,31.504 154.053,31.504 C153.643,31.504 153.302,31.674 153.030,32.015 C152.759,32.356 152.611,32.830 152.588,33.438 L155.260,33.438 ZM148.437,37.123 C147.953,37.123 147.612,37.001 147.415,36.757 C147.218,36.513 147.119,36.168 147.119,35.723 L147.119,31.809 L146.076,31.809 L146.076,31.246 L147.143,31.246 L147.143,29.447 L148.209,29.447 L148.209,31.246 L149.867,31.246 L149.867,31.809 L148.221,31.809 L148.221,35.037 C148.221,35.279 148.229,35.482 148.247,35.644 C148.265,35.806 148.307,35.947 148.373,36.068 C148.435,36.182 148.529,36.268 148.654,36.326 C148.779,36.385 148.947,36.414 149.158,36.414 C149.256,36.414 149.399,36.405 149.589,36.388 C149.778,36.370 149.912,36.348 149.990,36.320 L149.990,36.748 C149.736,36.854 149.496,36.942 149.270,37.015 C149.043,37.087 148.766,37.123 148.437,37.123 ZM143.939,37.117 C143.635,37.117 143.392,37.046 143.210,36.903 C143.028,36.761 142.912,36.553 142.861,36.279 L142.826,36.279 C142.572,36.561 142.300,36.775 142.009,36.924 C141.718,37.072 141.367,37.146 140.957,37.146 C140.523,37.146 140.167,37.014 139.888,36.748 C139.608,36.482 139.469,36.135 139.469,35.705 C139.469,35.482 139.500,35.283 139.562,35.107 C139.625,34.932 139.719,34.773 139.844,34.633 C139.941,34.516 140.070,34.411 140.230,34.319 C140.391,34.228 140.541,34.154 140.682,34.100 C140.857,34.033 141.214,33.910 141.751,33.730 C142.288,33.551 142.650,33.410 142.838,33.309 L142.838,32.729 C142.838,32.678 142.827,32.580 142.806,32.436 C142.784,32.291 142.738,32.154 142.668,32.025 C142.590,31.881 142.479,31.755 142.337,31.647 C142.194,31.540 141.992,31.486 141.730,31.486 C141.551,31.486 141.384,31.517 141.229,31.577 C141.075,31.638 140.967,31.701 140.904,31.768 C140.904,31.846 140.923,31.961 140.960,32.113 C140.997,32.266 141.016,32.406 141.016,32.535 C141.016,32.672 140.954,32.797 140.831,32.910 C140.708,33.023 140.537,33.080 140.318,33.080 C140.123,33.080 139.979,33.011 139.888,32.872 C139.796,32.733 139.750,32.578 139.750,32.406 C139.750,32.227 139.813,32.055 139.940,31.891 C140.067,31.727 140.232,31.580 140.436,31.451 C140.611,31.342 140.824,31.249 141.074,31.173 C141.324,31.097 141.568,31.059 141.807,31.059 C142.135,31.059 142.421,31.081 142.665,31.126 C142.909,31.171 143.131,31.268 143.330,31.416 C143.529,31.561 143.681,31.757 143.784,32.005 C143.888,32.253 143.939,32.572 143.939,32.963 C143.939,33.522 143.934,34.017 143.922,34.448 C143.910,34.880 143.904,35.352 143.904,35.863 C143.904,36.016 143.931,36.137 143.983,36.227 C144.036,36.316 144.117,36.393 144.227,36.455 C144.285,36.490 144.378,36.510 144.505,36.514 C144.632,36.518 144.762,36.520 144.895,36.520 L144.895,36.895 C144.711,36.961 144.550,37.015 144.411,37.056 C144.272,37.097 144.115,37.117 143.939,37.117 ZM141.977,34.089 C141.727,34.182 141.494,34.300 141.279,34.441 C141.084,34.574 140.930,34.732 140.816,34.914 C140.703,35.096 140.646,35.312 140.646,35.562 C140.646,35.887 140.731,36.126 140.901,36.279 C141.071,36.432 141.287,36.508 141.549,36.508 C141.826,36.508 142.070,36.440 142.281,36.305 C142.492,36.170 142.670,36.011 142.814,35.827 L142.850,33.801 C142.518,33.899 142.227,33.995 141.977,34.089 ZM135.311,36.613 C135.400,36.605 135.496,36.597 135.598,36.587 C135.699,36.577 135.783,36.562 135.850,36.543 C135.959,36.508 136.041,36.446 136.096,36.358 C136.150,36.270 136.178,36.156 136.178,36.015 L136.178,29.319 C136.178,29.178 136.147,29.046 136.087,28.923 C136.026,28.800 135.947,28.703 135.850,28.633 C135.779,28.586 135.650,28.543 135.463,28.504 C135.275,28.465 135.125,28.441 135.012,28.434 L135.012,28.059 L137.186,27.930 L137.268,28.018 L137.268,35.945 C137.268,36.082 137.293,36.194 137.344,36.282 C137.394,36.370 137.477,36.438 137.590,36.484 C137.676,36.523 137.761,36.553 137.845,36.572 C137.929,36.592 138.023,36.605 138.129,36.613 L138.129,37.000 L135.311,37.000 L135.311,36.613 ZM133.596,36.314 C133.334,36.584 133.043,36.791 132.723,36.936 C132.402,37.080 132.062,37.152 131.703,37.152 C131.355,37.152 131.070,37.113 130.848,37.035 C130.625,36.957 130.443,36.865 130.303,36.760 L130.256,36.760 L130.256,38.498 C130.256,38.639 130.283,38.757 130.338,38.851 C130.393,38.945 130.477,39.013 130.590,39.056 C130.684,39.091 130.817,39.126 130.991,39.159 C131.165,39.192 131.309,39.211 131.422,39.215 L131.422,39.602 L128.193,39.602 L128.193,39.215 C128.314,39.207 128.432,39.197 128.545,39.186 C128.658,39.174 128.760,39.154 128.850,39.127 C128.967,39.088 129.049,39.019 129.096,38.922 C129.143,38.824 129.166,38.709 129.166,38.576 L129.166,32.430 C129.166,32.312 129.137,32.199 129.078,32.090 C129.020,31.981 128.943,31.893 128.850,31.826 C128.779,31.779 128.682,31.743 128.557,31.718 C128.432,31.692 128.311,31.676 128.193,31.668 L128.193,31.281 L130.162,31.152 L130.244,31.223 L130.244,31.873 L130.291,31.885 C130.494,31.650 130.746,31.455 131.047,31.299 C131.348,31.143 131.646,31.064 131.943,31.064 C132.303,31.064 132.632,31.141 132.931,31.293 C133.229,31.445 133.486,31.650 133.701,31.908 C133.932,32.182 134.110,32.499 134.237,32.860 C134.364,33.222 134.428,33.635 134.428,34.100 C134.428,34.557 134.352,34.974 134.199,35.351 C134.047,35.728 133.846,36.049 133.596,36.314 ZM133.109,33.262 C133.047,32.961 132.949,32.699 132.816,32.477 C132.684,32.250 132.510,32.066 132.295,31.926 C132.080,31.785 131.822,31.715 131.521,31.715 C131.232,31.715 130.986,31.778 130.783,31.905 C130.580,32.032 130.404,32.184 130.256,32.359 L130.256,35.775 C130.291,35.881 130.349,35.990 130.429,36.104 C130.509,36.217 130.598,36.314 130.695,36.396 C130.816,36.494 130.947,36.573 131.088,36.634 C131.229,36.694 131.400,36.725 131.604,36.725 C131.822,36.725 132.033,36.667 132.236,36.552 C132.439,36.437 132.609,36.273 132.746,36.063 C132.902,35.820 133.018,35.539 133.092,35.219 C133.166,34.898 133.203,34.541 133.203,34.146 C133.203,33.857 133.172,33.563 133.109,33.262 ZM123.494,36.613 C123.584,36.605 123.675,36.598 123.767,36.590 C123.858,36.582 123.939,36.566 124.010,36.543 C124.119,36.508 124.200,36.446 124.253,36.358 C124.306,36.271 124.332,36.156 124.332,36.016 L124.332,33.033 C124.332,32.627 124.239,32.314 124.054,32.093 C123.868,31.872 123.637,31.762 123.359,31.762 C123.168,31.762 122.988,31.791 122.820,31.850 C122.652,31.908 122.498,31.990 122.357,32.096 C122.244,32.182 122.149,32.274 122.073,32.374 C121.997,32.474 121.939,32.557 121.900,32.623 L121.900,35.957 C121.900,36.094 121.924,36.206 121.971,36.294 C122.018,36.382 122.098,36.449 122.211,36.496 C122.301,36.531 122.382,36.558 122.454,36.575 C122.526,36.593 122.621,36.605 122.738,36.613 L122.738,37.000 L119.984,37.000 L119.984,36.613 C120.074,36.605 120.161,36.598 120.245,36.590 C120.329,36.582 120.406,36.566 120.477,36.543 C120.586,36.508 120.667,36.446 120.720,36.358 C120.772,36.271 120.799,36.156 120.799,36.016 L120.799,33.033 C120.799,32.627 120.706,32.314 120.520,32.093 C120.334,31.872 120.102,31.762 119.824,31.762 C119.632,31.762 119.452,31.792 119.283,31.853 C119.115,31.913 118.960,31.996 118.819,32.102 C118.706,32.188 118.610,32.284 118.532,32.392 C118.453,32.499 118.395,32.580 118.355,32.635 L118.355,35.945 C118.355,36.078 118.383,36.189 118.438,36.279 C118.492,36.369 118.574,36.438 118.684,36.484 C118.766,36.523 118.850,36.553 118.936,36.572 C119.021,36.592 119.117,36.605 119.223,36.613 L119.223,37.000 L116.416,37.000 L116.416,36.613 C116.506,36.605 116.599,36.598 116.694,36.590 C116.790,36.582 116.873,36.566 116.943,36.543 C117.053,36.508 117.134,36.447 117.187,36.359 C117.239,36.271 117.266,36.157 117.266,36.016 L117.266,32.429 C117.266,32.304 117.237,32.192 117.181,32.092 C117.124,31.993 117.045,31.908 116.943,31.838 C116.869,31.791 116.777,31.753 116.668,31.724 C116.559,31.694 116.445,31.676 116.328,31.668 L116.328,31.281 L118.262,31.152 L118.344,31.234 L118.344,32.061 L118.385,32.061 C118.482,31.963 118.602,31.848 118.742,31.715 C118.883,31.582 119.014,31.475 119.135,31.393 C119.271,31.299 119.442,31.221 119.647,31.158 C119.853,31.096 120.074,31.064 120.313,31.064 C120.687,31.064 121.010,31.165 121.279,31.366 C121.549,31.567 121.742,31.811 121.859,32.096 C122.000,31.959 122.124,31.839 122.231,31.735 C122.338,31.632 122.479,31.521 122.655,31.404 C122.803,31.303 122.978,31.221 123.178,31.158 C123.379,31.096 123.603,31.064 123.848,31.064 C124.336,31.064 124.722,31.225 125.007,31.545 C125.291,31.865 125.434,32.357 125.434,33.021 L125.434,35.957 C125.434,36.094 125.457,36.206 125.504,36.294 C125.551,36.382 125.631,36.449 125.744,36.496 C125.834,36.531 125.923,36.558 126.011,36.575 C126.099,36.593 126.197,36.605 126.307,36.613 L126.307,37.000 L123.494,37.000 L123.494,36.613 ZM112.039,35.780 C112.191,36.007 112.391,36.186 112.637,36.317 C112.883,36.448 113.176,36.514 113.516,36.514 C113.863,36.514 114.163,36.432 114.415,36.269 C114.667,36.106 114.910,35.813 115.145,35.389 L115.555,35.641 C115.312,36.102 114.988,36.469 114.582,36.742 C114.176,37.016 113.709,37.152 113.182,37.152 C112.717,37.152 112.310,37.070 111.960,36.906 C111.610,36.742 111.322,36.520 111.096,36.238 C110.869,35.957 110.700,35.629 110.589,35.254 C110.478,34.879 110.422,34.482 110.422,34.064 C110.422,33.689 110.481,33.321 110.601,32.960 C110.720,32.599 110.894,32.273 111.125,31.984 C111.348,31.707 111.624,31.483 111.954,31.313 C112.284,31.144 112.654,31.059 113.064,31.059 C113.486,31.059 113.848,31.125 114.148,31.258 C114.449,31.391 114.693,31.572 114.881,31.803 C115.060,32.022 115.194,32.279 115.282,32.576 C115.370,32.873 115.414,33.195 115.414,33.543 L115.414,33.930 L111.588,33.930 C111.588,34.309 111.624,34.654 111.696,34.963 C111.769,35.273 111.883,35.545 112.039,35.780 ZM114.260,33.438 C114.260,33.219 114.241,32.986 114.204,32.737 C114.167,32.487 114.107,32.279 114.025,32.111 C113.935,31.932 113.812,31.786 113.656,31.673 C113.500,31.560 113.299,31.504 113.053,31.504 C112.643,31.504 112.302,31.674 112.030,32.015 C111.759,32.356 111.611,32.830 111.588,33.438 L114.260,33.438 ZM108.741,30.440 C108.649,30.247 108.546,30.065 108.432,29.893 C108.315,29.713 108.187,29.556 108.048,29.421 C107.909,29.286 107.775,29.209 107.646,29.189 C107.524,29.174 107.371,29.162 107.187,29.154 C107.003,29.147 106.833,29.143 106.677,29.143 L106.336,29.143 L106.336,35.793 C106.336,35.922 106.363,36.040 106.418,36.147 C106.473,36.255 106.568,36.338 106.705,36.396 C106.775,36.424 106.923,36.461 107.147,36.508 C107.372,36.555 107.547,36.580 107.672,36.584 L107.672,37.000 L103.746,37.000 L103.746,36.584 C103.855,36.576 104.022,36.561 104.247,36.537 C104.472,36.514 104.627,36.484 104.713,36.449 C104.842,36.398 104.936,36.325 104.997,36.229 C105.058,36.134 105.088,36.006 105.088,35.846 L105.088,29.143 L104.748,29.143 C104.627,29.143 104.477,29.146 104.297,29.151 C104.117,29.157 103.945,29.170 103.781,29.189 C103.652,29.205 103.518,29.282 103.380,29.421 C103.241,29.560 103.113,29.717 102.996,29.893 C102.879,30.068 102.775,30.255 102.686,30.452 C102.596,30.649 102.533,30.812 102.498,30.941 L102.088,30.941 L102.088,28.686 L109.336,28.686 L109.336,30.941 L108.932,30.941 C108.896,30.801 108.833,30.634 108.741,30.440 ZM95.039,35.780 C95.191,36.007 95.391,36.186 95.637,36.317 C95.883,36.448 96.176,36.514 96.516,36.514 C96.863,36.514 97.163,36.432 97.415,36.269 C97.667,36.106 97.910,35.813 98.145,35.389 L98.555,35.641 C98.312,36.102 97.988,36.469 97.582,36.742 C97.176,37.016 96.709,37.152 96.182,37.152 C95.717,37.152 95.310,37.070 94.960,36.906 C94.610,36.742 94.322,36.520 94.096,36.238 C93.869,35.957 93.700,35.629 93.589,35.254 C93.478,34.879 93.422,34.482 93.422,34.064 C93.422,33.689 93.481,33.321 93.601,32.960 C93.720,32.599 93.894,32.273 94.125,31.984 C94.348,31.707 94.624,31.483 94.954,31.313 C95.284,31.144 95.654,31.059 96.064,31.059 C96.486,31.059 96.848,31.125 97.148,31.258 C97.449,31.391 97.693,31.572 97.881,31.803 C98.060,32.022 98.194,32.279 98.282,32.576 C98.370,32.873 98.414,33.195 98.414,33.543 L98.414,33.930 L94.588,33.930 C94.588,34.309 94.624,34.654 94.696,34.963 C94.769,35.273 94.883,35.545 95.039,35.780 ZM97.260,33.438 C97.260,33.219 97.241,32.986 97.204,32.737 C97.167,32.487 97.107,32.279 97.025,32.111 C96.935,31.932 96.812,31.786 96.656,31.673 C96.500,31.560 96.299,31.504 96.053,31.504 C95.643,31.504 95.302,31.674 95.030,32.015 C94.759,32.356 94.611,32.830 94.588,33.438 L97.260,33.438 ZM90.438,37.123 C89.953,37.123 89.612,37.001 89.415,36.757 C89.218,36.513 89.119,36.168 89.119,35.723 L89.119,31.809 L88.076,31.809 L88.076,31.246 L89.143,31.246 L89.143,29.447 L90.209,29.447 L90.209,31.246 L91.867,31.246 L91.867,31.809 L90.221,31.809 L90.221,35.037 C90.221,35.279 90.229,35.482 90.247,35.644 C90.265,35.806 90.307,35.947 90.373,36.068 C90.435,36.182 90.529,36.268 90.654,36.326 C90.779,36.385 90.947,36.414 91.158,36.414 C91.256,36.414 91.399,36.405 91.589,36.388 C91.778,36.370 91.912,36.348 91.990,36.320 L91.990,36.748 C91.736,36.854 91.496,36.942 91.270,37.015 C91.043,37.087 90.766,37.123 90.438,37.123 ZM84.434,36.613 C84.523,36.605 84.616,36.598 84.712,36.590 C84.808,36.582 84.891,36.566 84.961,36.543 C85.070,36.508 85.151,36.447 85.204,36.359 C85.257,36.271 85.283,36.157 85.283,36.016 L85.283,32.452 C85.283,32.327 85.255,32.213 85.198,32.110 C85.142,32.006 85.062,31.920 84.961,31.849 C84.887,31.803 84.779,31.763 84.639,31.729 C84.498,31.696 84.369,31.676 84.252,31.668 L84.252,31.281 L86.291,31.152 L86.373,31.234 L86.373,35.945 C86.373,36.082 86.399,36.195 86.452,36.285 C86.504,36.375 86.586,36.441 86.699,36.484 C86.784,36.520 86.868,36.548 86.949,36.569 C87.031,36.591 87.122,36.605 87.223,36.613 L87.223,37.000 L84.434,37.000 L84.434,36.613 ZM85.729,29.705 C85.529,29.705 85.356,29.626 85.210,29.468 C85.063,29.310 84.990,29.129 84.990,28.926 C84.990,28.711 85.063,28.523 85.210,28.363 C85.356,28.203 85.529,28.123 85.729,28.123 C85.951,28.123 86.134,28.198 86.276,28.349 C86.419,28.499 86.490,28.674 86.490,28.873 C86.490,29.096 86.417,29.290 86.271,29.456 C86.124,29.622 85.943,29.705 85.729,29.705 ZM81.578,37.152 C81.242,37.152 80.933,37.092 80.649,36.971 C80.366,36.850 80.164,36.738 80.043,36.637 L79.926,37.018 L79.486,37.018 L79.428,35.008 L79.832,35.008 C79.863,35.161 79.930,35.339 80.031,35.543 C80.133,35.747 80.256,35.931 80.400,36.096 C80.553,36.268 80.735,36.413 80.948,36.531 C81.161,36.648 81.400,36.707 81.666,36.707 C82.041,36.707 82.330,36.622 82.533,36.451 C82.736,36.280 82.838,36.035 82.838,35.717 C82.838,35.553 82.806,35.411 82.741,35.292 C82.677,35.173 82.582,35.068 82.457,34.979 C82.328,34.889 82.170,34.808 81.982,34.735 C81.795,34.663 81.586,34.592 81.355,34.521 C81.172,34.467 80.968,34.392 80.743,34.296 C80.518,34.200 80.326,34.088 80.166,33.959 C79.994,33.822 79.853,33.654 79.744,33.455 C79.635,33.256 79.580,33.021 79.580,32.752 C79.580,32.279 79.756,31.879 80.107,31.551 C80.459,31.223 80.930,31.059 81.520,31.059 C81.746,31.059 81.977,31.088 82.214,31.146 C82.450,31.205 82.643,31.275 82.791,31.357 L82.926,31.053 L83.348,31.053 L83.436,32.910 L83.031,32.910 C82.949,32.494 82.772,32.156 82.501,31.895 C82.229,31.634 81.898,31.504 81.508,31.504 C81.187,31.504 80.936,31.585 80.752,31.746 C80.568,31.907 80.477,32.102 80.477,32.330 C80.477,32.506 80.507,32.652 80.567,32.770 C80.628,32.887 80.719,32.986 80.840,33.068 C80.957,33.147 81.104,33.220 81.282,33.288 C81.460,33.356 81.680,33.434 81.941,33.520 C82.199,33.602 82.442,33.697 82.671,33.807 C82.899,33.916 83.088,34.037 83.236,34.170 C83.396,34.311 83.520,34.473 83.605,34.656 C83.691,34.840 83.734,35.064 83.734,35.330 C83.734,35.865 83.534,36.303 83.134,36.643 C82.733,36.982 82.215,37.152 81.578,37.152 ZM75.563,37.176 C75.246,37.176 74.935,37.127 74.628,37.029 C74.321,36.932 74.033,36.801 73.764,36.637 L73.330,37.311 L72.967,37.228 C72.986,36.939 73.000,36.591 73.008,36.185 C73.016,35.778 73.020,35.385 73.020,35.006 L73.020,29.284 C73.020,29.151 72.989,29.018 72.929,28.885 C72.868,28.752 72.791,28.656 72.697,28.598 C72.623,28.547 72.499,28.509 72.325,28.483 C72.151,28.458 72.012,28.441 71.906,28.434 L71.906,28.059 L74.027,27.930 L74.109,28.018 L74.109,31.826 L74.150,31.838 C74.393,31.580 74.657,31.387 74.944,31.258 C75.231,31.129 75.514,31.064 75.791,31.064 C76.502,31.064 77.096,31.346 77.572,31.908 C78.049,32.471 78.287,33.203 78.287,34.105 C78.287,34.973 78.014,35.701 77.467,36.291 C76.920,36.881 76.285,37.176 75.563,37.176 ZM76.969,33.262 C76.906,32.961 76.809,32.699 76.676,32.477 C76.543,32.250 76.369,32.066 76.154,31.926 C75.939,31.785 75.682,31.715 75.381,31.715 C75.107,31.715 74.868,31.769 74.663,31.876 C74.458,31.983 74.273,32.129 74.109,32.312 L74.109,35.676 C74.133,35.770 74.179,35.879 74.247,36.004 C74.315,36.129 74.408,36.248 74.525,36.361 C74.643,36.471 74.775,36.560 74.924,36.628 C75.072,36.696 75.254,36.730 75.469,36.730 C75.945,36.730 76.330,36.500 76.623,36.039 C76.916,35.578 77.062,34.947 77.062,34.146 C77.062,33.857 77.031,33.563 76.969,33.262 ZM68.039,35.780 C68.191,36.007 68.391,36.186 68.637,36.317 C68.883,36.448 69.176,36.514 69.516,36.514 C69.863,36.514 70.163,36.432 70.415,36.269 C70.667,36.106 70.910,35.813 71.145,35.389 L71.555,35.641 C71.312,36.102 70.988,36.469 70.582,36.742 C70.176,37.016 69.709,37.152 69.182,37.152 C68.717,37.152 68.310,37.070 67.960,36.906 C67.610,36.742 67.322,36.520 67.096,36.238 C66.869,35.957 66.700,35.629 66.589,35.254 C66.478,34.879 66.422,34.482 66.422,34.064 C66.422,33.689 66.481,33.321 66.601,32.960 C66.720,32.599 66.894,32.273 67.125,31.984 C67.348,31.707 67.624,31.483 67.954,31.313 C68.284,31.144 68.654,31.059 69.064,31.059 C69.486,31.059 69.848,31.125 70.148,31.258 C70.449,31.391 70.693,31.572 70.881,31.803 C71.060,32.022 71.194,32.279 71.282,32.576 C71.370,32.873 71.414,33.195 71.414,33.543 L71.414,33.930 L67.588,33.930 C67.588,34.309 67.624,34.654 67.696,34.963 C67.769,35.273 67.883,35.545 68.039,35.780 ZM70.260,33.438 C70.260,33.219 70.241,32.986 70.204,32.737 C70.167,32.487 70.107,32.279 70.025,32.111 C69.935,31.932 69.812,31.786 69.656,31.673 C69.500,31.560 69.299,31.504 69.053,31.504 C68.643,31.504 68.302,31.674 68.030,32.015 C67.759,32.356 67.611,32.830 67.588,33.438 L70.260,33.438 ZM65.186,29.330 C65.049,29.416 64.938,29.515 64.854,29.626 C64.770,29.737 64.697,29.893 64.635,30.092 C64.357,30.994 64.035,32.048 63.668,33.253 C63.301,34.458 62.904,35.742 62.479,37.105 L61.939,37.105 L59.840,30.702 L57.658,37.105 L57.141,37.105 C56.754,35.738 56.353,34.319 55.939,32.849 C55.525,31.378 55.248,30.393 55.107,29.893 C55.072,29.772 55.020,29.664 54.952,29.570 C54.884,29.477 54.791,29.391 54.674,29.312 C54.576,29.246 54.462,29.196 54.331,29.163 C54.200,29.130 54.082,29.109 53.977,29.102 L53.977,28.686 L57.366,28.686 L57.366,29.102 C57.069,29.117 56.816,29.147 56.607,29.189 C56.398,29.232 56.294,29.305 56.294,29.406 C56.294,29.445 56.300,29.497 56.311,29.562 C56.323,29.626 56.333,29.678 56.341,29.717 C56.430,30.061 56.589,30.629 56.818,31.422 C57.046,32.215 57.384,33.402 57.833,34.984 L59.908,28.803 L60.482,28.803 L62.576,35.116 C62.858,34.145 63.101,33.297 63.305,32.571 C63.508,31.846 63.677,31.224 63.810,30.708 C63.904,30.344 63.963,30.095 63.986,29.960 C64.010,29.825 64.021,29.711 64.021,29.617 C64.021,29.484 63.931,29.373 63.749,29.283 C63.567,29.193 63.273,29.133 62.867,29.102 L62.867,28.686 L65.883,28.686 L65.883,29.102 C65.785,29.105 65.672,29.128 65.543,29.169 C65.414,29.210 65.295,29.264 65.186,29.330 ZM49.102,36.010 C48.672,36.342 48.189,36.590 47.654,36.754 C47.119,36.918 46.566,37.000 45.996,37.000 L42.551,37.000 L42.551,36.584 C42.664,36.584 42.812,36.573 42.993,36.552 C43.175,36.530 43.295,36.506 43.354,36.479 C43.471,36.428 43.556,36.353 43.608,36.253 C43.661,36.153 43.688,36.033 43.688,35.893 L43.688,29.893 C43.688,29.760 43.665,29.641 43.620,29.535 C43.575,29.430 43.486,29.346 43.354,29.283 C43.232,29.225 43.102,29.182 42.961,29.154 C42.820,29.127 42.699,29.109 42.598,29.102 L42.598,28.686 L46.230,28.686 C46.730,28.686 47.223,28.763 47.707,28.917 C48.191,29.071 48.613,29.279 48.973,29.541 C49.461,29.889 49.844,30.344 50.121,30.906 C50.398,31.469 50.537,32.131 50.537,32.893 C50.537,33.600 50.404,34.213 50.139,34.732 C49.873,35.252 49.527,35.678 49.102,36.010 ZM48.879,31.376 C48.730,30.925 48.514,30.532 48.229,30.196 C47.959,29.876 47.628,29.625 47.235,29.441 C46.843,29.258 46.406,29.166 45.926,29.166 C45.766,29.166 45.585,29.169 45.384,29.175 C45.183,29.181 45.033,29.186 44.936,29.189 L44.936,35.577 C44.936,35.932 45.039,36.178 45.246,36.315 C45.453,36.451 45.771,36.520 46.201,36.520 C46.697,36.520 47.131,36.432 47.502,36.256 C47.873,36.081 48.174,35.837 48.404,35.524 C48.646,35.196 48.823,34.817 48.935,34.386 C49.046,33.954 49.102,33.456 49.102,32.890 C49.102,32.332 49.027,31.827 48.879,31.376 ZM38.428,37.170 C38.057,37.170 37.686,37.112 37.314,36.997 C36.943,36.882 36.623,36.742 36.354,36.578 L36.102,37.006 L35.633,37.006 L35.551,34.158 L36.025,34.158 C36.123,34.510 36.237,34.827 36.368,35.110 C36.499,35.394 36.672,35.658 36.887,35.904 C37.090,36.135 37.327,36.318 37.599,36.455 C37.870,36.592 38.185,36.660 38.545,36.660 C38.814,36.660 39.050,36.625 39.251,36.555 C39.452,36.484 39.615,36.384 39.740,36.255 C39.865,36.126 39.958,35.975 40.019,35.801 C40.079,35.627 40.109,35.426 40.109,35.199 C40.109,34.867 40.016,34.557 39.828,34.269 C39.641,33.982 39.361,33.764 38.990,33.615 C38.736,33.514 38.445,33.402 38.117,33.280 C37.789,33.157 37.506,33.041 37.268,32.932 C36.799,32.721 36.435,32.445 36.175,32.103 C35.915,31.762 35.785,31.316 35.785,30.765 C35.785,30.449 35.850,30.154 35.979,29.880 C36.107,29.607 36.291,29.363 36.529,29.148 C36.756,28.945 37.023,28.786 37.332,28.671 C37.641,28.556 37.963,28.498 38.299,28.498 C38.682,28.498 39.024,28.557 39.327,28.674 C39.630,28.791 39.906,28.928 40.156,29.084 L40.396,28.686 L40.865,28.686 L40.912,31.445 L40.438,31.445 C40.352,31.129 40.255,30.826 40.147,30.537 C40.040,30.248 39.900,29.986 39.729,29.752 C39.561,29.525 39.355,29.345 39.113,29.210 C38.871,29.075 38.574,29.008 38.223,29.008 C37.852,29.008 37.535,29.127 37.273,29.365 C37.012,29.604 36.881,29.895 36.881,30.238 C36.881,30.598 36.965,30.896 37.133,31.132 C37.301,31.368 37.545,31.562 37.865,31.715 C38.150,31.852 38.431,31.970 38.706,32.069 C38.981,32.169 39.248,32.275 39.506,32.389 C39.740,32.490 39.966,32.605 40.183,32.734 C40.399,32.863 40.588,33.014 40.748,33.186 C40.924,33.381 41.054,33.595 41.138,33.827 C41.222,34.060 41.264,34.330 41.264,34.639 C41.264,35.373 40.992,35.979 40.449,36.455 C39.906,36.932 39.232,37.170 38.428,37.170 ZM33.977,32.717 C33.680,32.936 33.353,33.096 32.998,33.197 C32.643,33.299 32.266,33.350 31.867,33.350 L30.936,33.350 L30.936,35.869 C30.936,36.006 30.958,36.126 31.003,36.229 C31.048,36.333 31.141,36.412 31.281,36.467 C31.352,36.494 31.476,36.520 31.653,36.543 C31.831,36.566 31.994,36.580 32.143,36.584 L32.143,37.000 L28.574,37.000 L28.574,36.584 C28.668,36.576 28.804,36.563 28.981,36.543 C29.159,36.523 29.283,36.498 29.354,36.467 C29.471,36.416 29.556,36.342 29.608,36.244 C29.661,36.147 29.687,36.021 29.687,35.869 L29.687,29.869 C29.687,29.732 29.668,29.609 29.629,29.500 C29.590,29.391 29.498,29.309 29.354,29.254 C29.205,29.203 29.058,29.167 28.911,29.146 C28.765,29.124 28.639,29.109 28.533,29.102 L28.533,28.686 L32.330,28.686 C33.104,28.686 33.731,28.872 34.214,29.245 C34.696,29.618 34.938,30.115 34.938,30.736 C34.938,31.170 34.853,31.554 34.683,31.888 C34.513,32.222 34.277,32.498 33.977,32.717 ZM33.405,30.350 C33.353,30.119 33.262,29.918 33.133,29.746 C32.996,29.563 32.816,29.420 32.594,29.318 C32.371,29.217 32.094,29.166 31.762,29.166 L30.936,29.166 L30.936,32.840 L31.533,32.840 C31.955,32.840 32.298,32.774 32.562,32.644 C32.825,32.513 33.023,32.350 33.156,32.154 C33.289,31.967 33.377,31.773 33.420,31.571 C33.463,31.370 33.484,31.190 33.484,31.029 C33.484,30.807 33.458,30.580 33.405,30.350 ZM21.039,35.780 C21.191,36.007 21.391,36.186 21.637,36.317 C21.883,36.448 22.176,36.514 22.516,36.514 C22.863,36.514 23.163,36.432 23.415,36.269 C23.667,36.106 23.910,35.813 24.145,35.389 L24.555,35.641 C24.312,36.102 23.988,36.469 23.582,36.742 C23.176,37.016 22.709,37.152 22.182,37.152 C21.717,37.152 21.310,37.070 20.960,36.906 C20.610,36.742 20.322,36.520 20.096,36.238 C19.869,35.957 19.700,35.629 19.589,35.254 C19.478,34.879 19.422,34.482 19.422,34.064 C19.422,33.689 19.481,33.321 19.601,32.960 C19.720,32.599 19.894,32.273 20.125,31.984 C20.348,31.707 20.624,31.483 20.954,31.313 C21.284,31.144 21.654,31.059 22.064,31.059 C22.486,31.059 22.848,31.125 23.148,31.258 C23.449,31.391 23.693,31.572 23.881,31.803 C24.060,32.022 24.194,32.279 24.282,32.576 C24.370,32.873 24.414,33.195 24.414,33.543 L24.414,33.930 L20.588,33.930 C20.588,34.309 20.624,34.654 20.696,34.963 C20.769,35.273 20.883,35.545 21.039,35.780 ZM23.260,33.438 C23.260,33.219 23.241,32.986 23.204,32.737 C23.167,32.487 23.107,32.279 23.025,32.111 C22.935,31.932 22.812,31.786 22.656,31.673 C22.500,31.560 22.299,31.504 22.053,31.504 C21.643,31.504 21.302,31.674 21.030,32.015 C20.759,32.356 20.611,32.830 20.588,33.438 L23.260,33.438 ZM15.039,35.780 C15.191,36.007 15.391,36.186 15.637,36.317 C15.883,36.448 16.176,36.514 16.516,36.514 C16.863,36.514 17.163,36.432 17.415,36.269 C17.667,36.106 17.910,35.813 18.145,35.389 L18.555,35.641 C18.312,36.102 17.988,36.469 17.582,36.742 C17.176,37.016 16.709,37.152 16.182,37.152 C15.717,37.152 15.310,37.070 14.960,36.906 C14.610,36.742 14.322,36.520 14.096,36.238 C13.869,35.957 13.700,35.629 13.589,35.254 C13.478,34.879 13.422,34.482 13.422,34.064 C13.422,33.689 13.481,33.321 13.601,32.960 C13.720,32.599 13.894,32.273 14.125,31.984 C14.348,31.707 14.624,31.483 14.954,31.313 C15.284,31.144 15.654,31.059 16.064,31.059 C16.486,31.059 16.848,31.125 17.148,31.258 C17.449,31.391 17.693,31.572 17.881,31.803 C18.060,32.022 18.194,32.279 18.282,32.576 C18.370,32.873 18.414,33.195 18.414,33.543 L18.414,33.930 L14.588,33.930 C14.588,34.309 14.624,34.654 14.696,34.963 C14.769,35.273 14.883,35.545 15.039,35.780 ZM17.260,33.438 C17.260,33.219 17.241,32.986 17.204,32.737 C17.167,32.487 17.107,32.279 17.025,32.111 C16.935,31.932 16.812,31.786 16.656,31.673 C16.500,31.560 16.299,31.504 16.053,31.504 C15.643,31.504 15.302,31.674 15.030,32.015 C14.759,32.356 14.611,32.830 14.588,33.438 L17.260,33.438 ZM11.248,32.729 C11.029,32.729 10.862,32.672 10.747,32.559 C10.632,32.445 10.574,32.320 10.574,32.184 C10.574,32.098 10.581,32.020 10.595,31.949 C10.608,31.879 10.621,31.809 10.633,31.738 C10.449,31.738 10.234,31.813 9.988,31.961 C9.742,32.109 9.533,32.320 9.361,32.594 L9.361,35.957 C9.361,36.094 9.388,36.205 9.440,36.291 C9.493,36.377 9.576,36.441 9.689,36.484 C9.787,36.523 9.913,36.553 10.067,36.572 C10.222,36.592 10.355,36.605 10.469,36.613 L10.469,37.000 L7.422,37.000 L7.422,36.613 C7.512,36.605 7.604,36.598 7.700,36.590 C7.796,36.582 7.879,36.566 7.949,36.543 C8.059,36.508 8.140,36.447 8.192,36.359 C8.245,36.271 8.271,36.157 8.271,36.016 L8.271,32.452 C8.271,32.331 8.243,32.212 8.187,32.095 C8.130,31.978 8.051,31.885 7.949,31.814 C7.875,31.767 7.787,31.733 7.686,31.712 C7.584,31.690 7.475,31.676 7.357,31.668 L7.357,31.281 L9.279,31.152 L9.361,31.234 L9.361,32.049 L9.391,32.049 C9.633,31.732 9.902,31.492 10.199,31.328 C10.496,31.164 10.768,31.082 11.014,31.082 C11.260,31.082 11.460,31.162 11.614,31.322 C11.769,31.482 11.846,31.697 11.846,31.967 C11.846,32.166 11.797,32.343 11.699,32.497 C11.602,32.651 11.451,32.729 11.248,32.729 ZM6.073,29.775 C5.813,29.424 5.564,29.230 5.326,29.195 C5.205,29.180 5.061,29.168 4.896,29.160 C4.729,29.152 4.541,29.148 4.330,29.148 L2.936,29.148 L2.936,32.488 L3.893,32.488 C4.183,32.488 4.408,32.458 4.568,32.397 C4.729,32.337 4.866,32.244 4.980,32.119 C5.058,32.033 5.129,31.899 5.194,31.718 C5.259,31.536 5.301,31.342 5.320,31.135 L5.760,31.135 L5.760,34.404 L5.320,34.404 C5.309,34.232 5.268,34.037 5.200,33.818 C5.131,33.600 5.058,33.441 4.980,33.344 C4.862,33.199 4.714,33.101 4.536,33.048 C4.358,32.995 4.144,32.969 3.893,32.969 L2.936,32.969 L2.936,35.829 C2.936,35.958 2.961,36.073 3.012,36.175 C3.062,36.276 3.152,36.358 3.281,36.420 C3.340,36.447 3.467,36.481 3.662,36.520 C3.857,36.559 4.006,36.580 4.107,36.584 L4.107,37.000 L0.504,37.000 L0.504,36.584 C0.621,36.576 0.777,36.563 0.973,36.546 C1.168,36.528 1.295,36.506 1.354,36.479 C1.471,36.428 1.556,36.353 1.608,36.253 C1.661,36.153 1.688,36.033 1.688,35.893 L1.688,29.893 C1.688,29.764 1.666,29.649 1.623,29.550 C1.580,29.450 1.490,29.369 1.354,29.307 C1.248,29.256 1.106,29.211 0.929,29.172 C0.751,29.133 0.609,29.109 0.504,29.102 L0.504,28.686 L7.025,28.686 L7.025,30.766 L6.586,30.766 C6.504,30.457 6.333,30.127 6.073,29.775 Z"/>
<path fill-rule="evenodd"  fill="rgb(74, 74, 74)"
 d="M147.208,11.549 C147.826,11.845 148.433,12.101 149.030,12.317 C149.626,12.533 150.204,12.763 150.763,13.009 C151.271,13.229 151.759,13.479 152.229,13.758 C152.699,14.037 153.107,14.363 153.454,14.735 C153.835,15.159 154.116,15.622 154.298,16.125 C154.480,16.629 154.571,17.215 154.571,17.884 C154.571,19.475 153.983,20.787 152.807,21.819 C151.630,22.852 150.170,23.368 148.427,23.368 C147.623,23.368 146.819,23.243 146.015,22.994 C145.210,22.744 144.517,22.441 143.933,22.086 L143.387,23.013 L142.371,23.013 L142.193,16.843 L143.222,16.843 C143.433,17.604 143.681,18.292 143.964,18.906 C144.248,19.520 144.622,20.093 145.088,20.626 C145.528,21.125 146.042,21.523 146.630,21.819 C147.219,22.116 147.902,22.264 148.681,22.264 C149.265,22.264 149.774,22.187 150.210,22.035 C150.646,21.882 151.000,21.666 151.271,21.387 C151.541,21.107 151.742,20.779 151.874,20.401 C152.005,20.024 152.070,19.590 152.070,19.098 C152.070,18.378 151.867,17.706 151.461,17.083 C151.055,16.461 150.449,15.988 149.646,15.666 C149.095,15.447 148.465,15.204 147.754,14.939 C147.043,14.674 146.429,14.423 145.913,14.187 C144.897,13.730 144.108,13.131 143.545,12.391 C142.982,11.651 142.701,10.684 142.701,9.491 C142.701,8.805 142.841,8.167 143.120,7.574 C143.399,6.982 143.797,6.453 144.313,5.988 C144.804,5.548 145.384,5.203 146.053,4.954 C146.721,4.704 147.419,4.579 148.147,4.579 C148.977,4.579 149.719,4.706 150.375,4.960 C151.031,5.214 151.630,5.510 152.172,5.849 L152.692,4.985 L153.708,4.985 L153.810,10.965 L152.781,10.965 C152.595,10.279 152.386,9.624 152.153,8.997 C151.920,8.371 151.617,7.804 151.245,7.296 C150.881,6.805 150.437,6.414 149.912,6.122 C149.387,5.830 148.744,5.684 147.982,5.684 C147.178,5.684 146.493,5.942 145.926,6.458 C145.359,6.974 145.075,7.605 145.075,8.350 C145.075,9.128 145.257,9.774 145.621,10.286 C145.985,10.798 146.514,11.219 147.208,11.549 ZM133.427,23.368 C132.623,23.368 131.819,23.243 131.015,22.994 C130.210,22.744 129.517,22.441 128.933,22.086 L128.387,23.013 L127.371,23.013 L127.193,16.843 L128.222,16.843 C128.433,17.604 128.681,18.292 128.964,18.906 C129.248,19.520 129.622,20.093 130.088,20.626 C130.528,21.125 131.042,21.523 131.630,21.819 C132.219,22.116 132.902,22.264 133.681,22.264 C134.265,22.264 134.774,22.187 135.210,22.035 C135.646,21.882 136.000,21.666 136.271,21.387 C136.541,21.107 136.742,20.779 136.874,20.401 C137.005,20.024 137.070,19.590 137.070,19.098 C137.070,18.378 136.867,17.706 136.461,17.083 C136.055,16.461 135.449,15.988 134.646,15.666 C134.095,15.447 133.465,15.204 132.754,14.939 C132.043,14.674 131.429,14.423 130.913,14.187 C129.897,13.730 129.108,13.131 128.545,12.391 C127.982,11.651 127.701,10.684 127.701,9.491 C127.701,8.805 127.841,8.167 128.120,7.574 C128.399,6.982 128.797,6.453 129.313,5.988 C129.804,5.548 130.384,5.203 131.053,4.954 C131.721,4.704 132.419,4.579 133.147,4.579 C133.977,4.579 134.719,4.706 135.375,4.960 C136.031,5.214 136.630,5.510 137.172,5.849 L137.692,4.985 L138.708,4.985 L138.810,10.965 L137.781,10.965 C137.595,10.279 137.386,9.624 137.153,8.997 C136.920,8.371 136.617,7.804 136.245,7.296 C135.881,6.805 135.437,6.414 134.912,6.122 C134.387,5.830 133.744,5.684 132.982,5.684 C132.178,5.684 131.493,5.942 130.926,6.458 C130.359,6.974 130.075,7.605 130.075,8.350 C130.075,9.128 130.257,9.774 130.621,10.286 C130.985,10.798 131.514,11.219 132.208,11.549 C132.826,11.845 133.433,12.101 134.030,12.317 C134.626,12.533 135.204,12.763 135.763,13.009 C136.271,13.229 136.759,13.479 137.229,13.758 C137.699,14.037 138.107,14.363 138.454,14.735 C138.835,15.159 139.116,15.622 139.298,16.125 C139.480,16.629 139.571,17.215 139.571,17.884 C139.571,19.475 138.983,20.787 137.807,21.819 C136.630,22.852 135.170,23.368 133.427,23.368 ZM110.092,23.000 L110.092,22.099 C110.346,22.082 110.684,22.046 111.107,21.991 C111.531,21.936 111.806,21.879 111.933,21.819 C112.203,21.692 112.392,21.527 112.498,21.324 C112.603,21.121 112.656,20.863 112.656,20.550 L112.656,7.601 C112.656,7.321 112.610,7.074 112.517,6.858 C112.423,6.642 112.229,6.467 111.933,6.331 C111.704,6.221 111.397,6.124 111.012,6.039 C110.627,5.955 110.320,5.904 110.092,5.887 L110.092,4.985 L124.031,4.985 L124.031,9.327 L123.079,9.327 C122.910,8.684 122.544,8.000 121.981,7.277 C121.418,6.553 120.883,6.158 120.375,6.090 C120.113,6.056 119.799,6.031 119.436,6.014 C119.072,5.997 118.657,5.988 118.191,5.988 L115.360,5.988 L115.360,13.148 L117.392,13.148 C118.043,13.148 118.519,13.087 118.820,12.964 C119.120,12.842 119.385,12.636 119.613,12.349 C119.799,12.103 119.958,11.775 120.089,11.365 C120.220,10.954 120.307,10.567 120.350,10.203 L121.302,10.203 L121.302,17.262 L120.350,17.262 C120.316,16.855 120.225,16.426 120.077,15.973 C119.928,15.520 119.774,15.192 119.613,14.989 C119.351,14.659 119.053,14.443 118.718,14.342 C118.384,14.240 117.942,14.189 117.392,14.189 L115.360,14.189 L115.360,19.589 C115.360,20.130 115.398,20.556 115.475,20.869 C115.551,21.182 115.699,21.418 115.919,21.579 C116.139,21.739 116.439,21.843 116.820,21.889 C117.201,21.936 117.743,21.959 118.445,21.959 C118.725,21.959 119.093,21.959 119.550,21.959 C120.007,21.959 120.392,21.942 120.705,21.908 C121.027,21.874 121.359,21.813 121.702,21.724 C122.044,21.635 122.288,21.515 122.432,21.362 C122.821,20.956 123.229,20.340 123.657,19.515 C124.084,18.690 124.357,18.083 124.476,17.693 L125.390,17.693 L125.047,23.000 L110.092,23.000 ZM107.637,6.090 C107.146,6.217 106.794,6.348 106.583,6.483 C106.278,6.695 106.073,7.101 105.967,7.702 C105.861,8.303 105.809,9.065 105.809,9.987 L105.809,23.178 L104.704,23.178 L93.786,8.438 L93.786,17.731 C93.786,18.772 93.852,19.572 93.983,20.131 C94.114,20.689 94.315,21.087 94.586,21.324 C94.781,21.510 95.183,21.684 95.792,21.845 C96.401,22.006 96.803,22.090 96.998,22.099 L96.998,23.000 L89.609,23.000 L89.609,22.099 C89.838,22.082 90.223,21.999 90.765,21.851 C91.306,21.703 91.645,21.570 91.780,21.451 C92.076,21.214 92.280,20.853 92.390,20.366 C92.500,19.879 92.555,19.048 92.555,17.871 L92.555,8.997 C92.555,8.608 92.487,8.218 92.352,7.829 C92.216,7.440 92.034,7.139 91.806,6.928 C91.501,6.648 91.088,6.409 90.568,6.210 C90.047,6.012 89.626,5.904 89.305,5.887 L89.305,4.985 L94.451,4.985 L104.577,18.719 L104.577,10.152 C104.577,9.102 104.509,8.296 104.374,7.733 C104.239,7.171 104.044,6.796 103.790,6.610 C103.553,6.449 103.166,6.293 102.628,6.141 C102.091,5.988 101.683,5.904 101.403,5.887 L101.403,4.985 L108.729,4.985 L108.729,5.887 C108.491,5.895 108.127,5.963 107.637,6.090 ZM80.416,22.099 C80.619,22.082 80.913,22.056 81.298,22.022 C81.683,21.989 81.948,21.938 82.092,21.870 C82.346,21.769 82.532,21.614 82.650,21.407 C82.769,21.199 82.828,20.931 82.828,20.601 L82.828,14.189 L74.360,14.189 L74.360,20.461 C74.360,20.757 74.409,21.007 74.506,21.210 C74.604,21.413 74.796,21.591 75.084,21.743 C75.228,21.819 75.484,21.896 75.852,21.972 C76.220,22.048 76.510,22.090 76.722,22.099 L76.722,23.000 L69.244,23.000 L69.244,22.099 C69.447,22.082 69.741,22.056 70.126,22.022 C70.511,21.989 70.776,21.938 70.920,21.870 C71.174,21.769 71.360,21.614 71.479,21.407 C71.597,21.199 71.656,20.931 71.656,20.601 L71.656,7.601 C71.656,7.330 71.601,7.082 71.491,6.858 C71.381,6.634 71.191,6.458 70.920,6.331 C70.691,6.221 70.414,6.124 70.088,6.039 C69.762,5.955 69.481,5.904 69.244,5.887 L69.244,4.985 L76.722,4.985 L76.722,5.887 C76.485,5.895 76.195,5.933 75.852,6.001 C75.509,6.069 75.253,6.132 75.084,6.191 C74.796,6.293 74.604,6.462 74.506,6.699 C74.409,6.936 74.360,7.194 74.360,7.474 L74.360,13.060 L82.828,13.060 L82.828,7.601 C82.828,7.330 82.773,7.082 82.663,6.858 C82.553,6.634 82.363,6.458 82.092,6.331 C81.863,6.221 81.586,6.124 81.260,6.039 C80.934,5.955 80.653,5.904 80.416,5.887 L80.416,4.985 L87.894,4.985 L87.894,5.887 C87.657,5.895 87.367,5.933 87.024,6.001 C86.681,6.069 86.425,6.132 86.256,6.191 C85.968,6.293 85.775,6.462 85.678,6.699 C85.581,6.936 85.532,7.194 85.532,7.474 L85.532,20.461 C85.532,20.757 85.581,21.007 85.678,21.210 C85.775,21.413 85.968,21.591 86.256,21.743 C86.400,21.819 86.656,21.896 87.024,21.972 C87.392,22.048 87.682,22.090 87.894,22.099 L87.894,23.000 L80.416,23.000 L80.416,22.099 ZM60.427,23.368 C59.623,23.368 58.819,23.243 58.015,22.994 C57.210,22.744 56.517,22.441 55.933,22.086 L55.387,23.013 L54.371,23.013 L54.193,16.843 L55.222,16.843 C55.433,17.604 55.681,18.292 55.964,18.906 C56.248,19.520 56.622,20.093 57.088,20.626 C57.528,21.125 58.042,21.523 58.630,21.819 C59.219,22.116 59.902,22.264 60.681,22.264 C61.265,22.264 61.774,22.187 62.210,22.035 C62.646,21.882 63.000,21.666 63.271,21.387 C63.541,21.107 63.742,20.779 63.874,20.401 C64.005,20.024 64.070,19.590 64.070,19.098 C64.070,18.378 63.867,17.706 63.461,17.083 C63.055,16.461 62.449,15.988 61.646,15.666 C61.095,15.447 60.465,15.204 59.754,14.939 C59.043,14.674 58.429,14.423 57.913,14.187 C56.897,13.730 56.108,13.131 55.545,12.391 C54.982,11.651 54.701,10.684 54.701,9.491 C54.701,8.805 54.841,8.167 55.120,7.574 C55.399,6.982 55.797,6.453 56.313,5.988 C56.804,5.548 57.384,5.203 58.053,4.954 C58.721,4.704 59.419,4.579 60.147,4.579 C60.977,4.579 61.719,4.706 62.375,4.960 C63.031,5.214 63.630,5.510 64.172,5.849 L64.692,4.985 L65.708,4.985 L65.810,10.965 L64.781,10.965 C64.595,10.279 64.386,9.624 64.153,8.997 C63.920,8.371 63.617,7.804 63.245,7.296 C62.881,6.805 62.437,6.414 61.912,6.122 C61.387,5.830 60.744,5.684 59.982,5.684 C59.178,5.684 58.493,5.942 57.926,6.458 C57.359,6.974 57.075,7.605 57.075,8.350 C57.075,9.128 57.257,9.774 57.621,10.286 C57.985,10.798 58.514,11.219 59.208,11.549 C59.826,11.845 60.433,12.101 61.030,12.317 C61.626,12.533 62.204,12.763 62.763,13.009 C63.271,13.229 63.759,13.479 64.229,13.758 C64.699,14.037 65.107,14.363 65.454,14.735 C65.835,15.159 66.116,15.622 66.298,16.125 C66.480,16.629 66.571,17.215 66.571,17.884 C66.571,19.475 65.983,20.787 64.807,21.819 C63.630,22.852 62.170,23.368 60.427,23.368 ZM37.092,23.000 L37.092,22.099 C37.346,22.082 37.684,22.046 38.107,21.991 C38.531,21.936 38.806,21.879 38.933,21.819 C39.203,21.692 39.392,21.527 39.498,21.324 C39.603,21.121 39.656,20.863 39.656,20.550 L39.656,7.601 C39.656,7.321 39.610,7.074 39.517,6.858 C39.423,6.642 39.229,6.467 38.933,6.331 C38.704,6.221 38.397,6.124 38.012,6.039 C37.627,5.955 37.320,5.904 37.092,5.887 L37.092,4.985 L51.031,4.985 L51.031,9.327 L50.079,9.327 C49.910,8.684 49.544,8.000 48.981,7.277 C48.418,6.553 47.883,6.158 47.375,6.090 C47.113,6.056 46.799,6.031 46.436,6.014 C46.072,5.997 45.657,5.988 45.191,5.988 L42.360,5.988 L42.360,13.148 L44.392,13.148 C45.043,13.148 45.519,13.087 45.820,12.964 C46.120,12.842 46.385,12.636 46.613,12.349 C46.799,12.103 46.958,11.775 47.089,11.365 C47.220,10.954 47.307,10.567 47.350,10.203 L48.302,10.203 L48.302,17.262 L47.350,17.262 C47.316,16.855 47.225,16.426 47.077,15.973 C46.928,15.520 46.774,15.192 46.613,14.989 C46.351,14.659 46.053,14.443 45.718,14.342 C45.384,14.240 44.942,14.189 44.392,14.189 L42.360,14.189 L42.360,19.589 C42.360,20.130 42.398,20.556 42.475,20.869 C42.551,21.182 42.699,21.418 42.919,21.579 C43.139,21.739 43.439,21.843 43.820,21.889 C44.201,21.936 44.743,21.959 45.445,21.959 C45.725,21.959 46.093,21.959 46.550,21.959 C47.007,21.959 47.392,21.942 47.705,21.908 C48.027,21.874 48.359,21.813 48.702,21.724 C49.044,21.635 49.288,21.515 49.432,21.362 C49.821,20.956 50.229,20.340 50.657,19.515 C51.084,18.690 51.357,18.083 51.476,17.693 L52.390,17.693 L52.047,23.000 L37.092,23.000 ZM29.027,18.633 C28.161,17.406 27.220,16.140 26.206,14.837 L24.360,14.837 L24.360,20.550 C24.360,20.846 24.407,21.106 24.500,21.331 C24.593,21.555 24.792,21.726 25.097,21.845 C25.249,21.904 25.516,21.959 25.896,22.010 C26.277,22.061 26.599,22.090 26.861,22.099 L26.861,23.000 L19.244,23.000 L19.244,22.099 C19.447,22.082 19.741,22.052 20.126,22.010 C20.511,21.968 20.780,21.913 20.933,21.845 C21.187,21.735 21.371,21.574 21.485,21.362 C21.599,21.151 21.656,20.880 21.656,20.550 L21.656,7.524 C21.656,7.228 21.614,6.966 21.529,6.737 C21.445,6.509 21.246,6.335 20.933,6.217 C20.721,6.141 20.446,6.071 20.107,6.007 C19.769,5.944 19.481,5.904 19.244,5.887 L19.244,4.985 L27.560,4.985 C28.321,4.985 29.036,5.064 29.705,5.220 C30.374,5.377 30.979,5.629 31.521,5.976 C32.045,6.314 32.464,6.756 32.777,7.302 C33.090,7.848 33.247,8.506 33.247,9.276 C33.247,9.970 33.141,10.584 32.930,11.117 C32.718,11.650 32.405,12.112 31.990,12.501 C31.609,12.865 31.152,13.180 30.619,13.447 C30.086,13.713 29.498,13.940 28.854,14.126 C29.743,15.302 30.481,16.293 31.070,17.097 C31.658,17.901 32.379,18.878 33.234,20.029 C33.607,20.537 33.943,20.912 34.244,21.153 C34.544,21.394 34.842,21.591 35.139,21.743 C35.359,21.853 35.634,21.938 35.964,21.997 C36.294,22.056 36.569,22.090 36.789,22.099 L36.789,23.000 L31.938,23.000 C30.864,21.316 29.894,19.860 29.027,18.633 ZM28.943,12.624 C29.722,11.876 30.111,10.860 30.111,9.575 C30.111,8.485 29.798,7.621 29.172,6.983 C28.545,6.345 27.661,6.026 26.519,6.026 L24.360,6.026 L24.360,13.745 L26.023,13.745 C27.191,13.745 28.165,13.371 28.943,12.624 ZM15.195,3.734 C14.502,2.797 13.838,2.281 13.203,2.187 C12.880,2.146 12.497,2.115 12.055,2.094 C11.612,2.073 11.109,2.062 10.547,2.062 L6.828,2.062 L6.828,10.969 L9.381,10.969 C10.154,10.969 10.754,10.888 11.182,10.727 C11.611,10.565 11.976,10.318 12.279,9.984 C12.488,9.755 12.678,9.398 12.851,8.914 C13.023,8.430 13.135,7.912 13.188,7.359 L14.359,7.359 L14.359,16.078 L13.188,16.078 C13.156,15.620 13.049,15.099 12.866,14.516 C12.684,13.932 12.488,13.510 12.279,13.250 C11.966,12.865 11.572,12.602 11.096,12.461 C10.621,12.320 10.050,12.250 9.381,12.250 L6.828,12.250 L6.828,19.878 C6.828,20.221 6.896,20.528 7.031,20.799 C7.167,21.069 7.406,21.288 7.750,21.454 C7.906,21.527 8.245,21.615 8.766,21.719 C9.286,21.823 9.682,21.880 9.953,21.891 L9.953,23.000 L0.344,23.000 L0.344,21.891 C0.656,21.870 1.073,21.836 1.594,21.789 C2.115,21.742 2.453,21.682 2.609,21.609 C2.922,21.474 3.148,21.273 3.289,21.008 C3.430,20.742 3.500,20.422 3.500,20.047 L3.500,4.047 C3.500,3.703 3.443,3.398 3.328,3.133 C3.213,2.867 2.974,2.651 2.609,2.484 C2.328,2.349 1.950,2.229 1.477,2.125 C1.002,2.021 0.625,1.958 0.344,1.937 L0.344,0.828 L17.734,0.828 L17.734,6.375 L16.563,6.375 C16.344,5.552 15.888,4.672 15.195,3.734 Z"/>
</svg>